<svg width="73" height="72" viewBox="0 0 73 72" fill="none" xmlns="http://www.w3.org/2000/svg">
<path d="M66.3191 41.6714L45.6433 6.595C39.7916 -2.37623 28.0883 -2.01855 23.407 6.59476L6.24219 41.6737C8.58285 49.5086 14.8246 50.6443 21.0664 49.1166C24.7074 42.8749 32.6916 27.5825 33.94 25.71C35.1883 23.8375 36.2806 24.9298 36.6708 25.71L50.3246 49.1166H54.6158C53.0554 43.6226 60.8576 39.7215 64.3686 44.0452L66.3191 41.6714Z" fill="url(#paint0_linear_1566_28690)"/>
<path d="M19.8959 13.9733C26.7618 9.60405 33.9398 19.9553 36.6706 25.6769C35.7737 23.9333 34.3299 24.8966 33.9398 25.676L31.5992 29.6487C30.0387 21.0663 20.6761 15.2146 17.9453 17.9454L19.8959 13.9733Z" fill="url(#paint1_linear_1566_28690)" fill-opacity="0.5"/>
<path d="M20.2852 13.5837C27.7753 10.1507 34.1991 20.2155 36.6698 25.6771L50.3236 49.0837H54.6148C53.0544 42.8419 61.2467 40.1111 64.3676 44.0122L66.3181 41.6716C66.7082 42.192 64.7577 38.7855 53.8346 20.9965C42.9115 3.20748 29.2577 3.70162 23.7961 6.17231L20.2852 13.5837Z" fill="url(#paint2_linear_1566_28690)"/>
<rect x="47.2031" y="41.0381" width="2.51433" height="1.25717" rx="0.628583" transform="rotate(-26.6904 47.2031 41.0381)" fill="#F8FAFB"/>
<rect x="50.0137" y="39.627" width="2.51433" height="1.25717" rx="0.628583" transform="rotate(-26.6904 50.0137 39.627)" fill="#F8FAFB"/>
<rect x="52.8203" y="38.2158" width="2.51433" height="1.25717" rx="0.628583" transform="rotate(-26.6904 52.8203 38.2158)" fill="#F8FAFB"/>
<rect x="55.6289" y="36.8008" width="2.51433" height="1.25717" rx="0.628583" transform="rotate(-26.6904 55.6289 36.8008)" fill="#F8FAFB"/>
<rect x="58.4336" y="35.3906" width="2.51433" height="1.25717" rx="0.628583" transform="rotate(-26.6904 58.4336 35.3906)" fill="#F8FAFB"/>
<path d="M13.2843 69.6523C13.2706 69.7755 13.2432 70.0698 13.2021 70.5352C13.1885 70.7816 13.1337 70.9664 13.0379 71.0896C12.9694 71.1306 12.8531 71.1512 12.6888 71.1512C12.2371 71.1512 11.6759 71.0348 11.0052 70.8021C10.2797 70.5831 9.78697 70.323 9.52689 70.0219C9.41739 69.8987 9.30788 69.4881 9.19838 68.79C9.04781 67.8729 8.87671 67.1132 8.68508 66.5109C8.16493 66.5794 7.40524 66.771 6.40601 67.0858C5.40679 67.3869 4.7566 67.6402 4.45547 67.8455C4.25014 68.4341 3.97638 69.1596 3.63418 70.0219C3.59312 70.2135 3.54521 70.3915 3.49046 70.5557C3.44939 70.7337 3.33304 70.8774 3.14141 70.9869C3.10035 71.0143 3.03875 71.028 2.95662 71.028C2.62811 71.028 2.07374 70.8569 1.29352 70.5147C0.52699 70.1725 0.130037 69.9466 0.10266 69.8371C0.0479082 69.6455 0.177945 69.1732 0.49277 68.4204C0.930788 67.3254 1.18402 66.6546 1.25246 66.4083C0.965009 66.1208 0.821284 65.8334 0.821284 65.5459C0.821284 65.4775 0.828128 65.4022 0.841816 65.3201C0.869192 65.1558 1.28668 64.8615 2.09427 64.4372L4.74291 55.3825C4.78398 55.2183 4.79082 54.9171 4.76345 54.4791C4.73607 54.1095 4.77713 53.8768 4.88664 53.781C4.95508 53.7126 5.11934 53.6784 5.37941 53.6784C6.02275 53.6784 6.93985 53.8426 8.13071 54.1711C9.32157 54.4996 10.0334 54.7939 10.266 55.054C10.3482 56.5734 10.6562 58.8524 11.19 61.8912C11.8744 65.6417 12.5725 68.2288 13.2843 69.6523ZM7.92539 63.4106C7.74744 62.5482 7.63794 61.9802 7.59688 61.7064C7.44631 60.7893 7.34365 59.838 7.28889 58.8524C7.01513 59.5232 6.69346 60.4539 6.32389 61.6448C5.92693 62.8904 5.71477 63.6706 5.68739 63.9855C5.94746 63.876 6.69346 63.6843 7.92539 63.4106ZM26.0812 68.0919C25.917 68.7352 25.6569 69.1253 25.301 69.2622C25.1915 69.3033 25.0409 69.3101 24.8493 69.2827C24.6713 69.2554 24.5413 69.2622 24.4592 69.3033L21.4204 70.5763C21.3246 70.6173 21.222 70.7337 21.1124 70.9253C21.0166 71.1169 20.9208 71.2265 20.825 71.2538C20.5239 71.3633 19.8874 71.2607 18.9155 70.9458C17.9437 70.631 17.3551 70.3367 17.1498 70.063C16.9992 69.844 16.9513 69.5018 17.006 69.0364C17.0334 68.8174 17.0471 68.6463 17.0471 68.5231V54.7255C17.0197 54.5886 16.965 54.4723 16.8828 54.3764C16.8007 54.2806 16.7596 54.1985 16.7596 54.1301C16.787 53.87 17.0266 53.6784 17.4783 53.5552C17.7657 53.4867 18.3885 53.5894 19.3467 53.8631C20.428 54.178 20.9756 54.5475 20.9893 54.9719C20.9893 55.0814 20.914 55.2456 20.7634 55.4646C20.6128 55.6837 20.5376 55.8479 20.5376 55.9574V67.3117L22.6729 66.3877C22.7961 66.2782 23.0288 66.155 23.371 66.0181C23.5626 65.9908 24.0759 66.2851 24.9109 66.901C25.7459 67.5033 26.136 67.9003 26.0812 68.0919ZM35.5056 71.1101C35.2182 71.1375 34.8965 71.0964 34.5406 70.9869C34.1847 70.8911 33.8357 70.7884 33.4935 70.6789C33.0828 70.5694 32.4395 70.3709 31.5634 70.0835C30.4684 69.6044 29.6403 68.6599 29.0791 67.2501C28.5863 66.0045 28.3399 64.4988 28.3399 62.733C28.3399 61.2958 28.5863 59.619 29.0791 57.7026C29.7498 55.1293 30.619 53.8426 31.6866 53.8426C31.7825 53.8426 31.9125 53.87 32.0768 53.9247C32.2547 53.9658 32.3916 53.9932 32.4874 54.0069C33.5003 53.7194 34.1505 53.5757 34.4379 53.5757C34.5748 53.5757 34.7117 53.5825 34.8486 53.5962C36.4912 53.8015 37.7847 54.8282 38.7292 56.676C39.5778 58.346 40.0021 60.3376 40.0021 62.6509C40.0021 64.841 39.6189 66.7231 38.8523 68.2972C38.0311 70.0082 36.9155 70.9458 35.5056 71.1101ZM35.136 56.0601C34.8349 55.9779 34.5338 56.3817 34.2326 57.2715C33.9452 58.1612 33.6509 58.6061 33.3497 58.6061C33.2813 58.6061 33.1786 58.5718 33.0418 58.5034C32.9186 58.4213 32.8159 58.3734 32.7338 58.3597C32.2684 59.3863 32.0357 60.8509 32.0357 62.7535C32.0357 64.2455 32.1931 65.5254 32.5079 66.593C32.8638 67.7839 33.3566 68.4409 33.9862 68.5641C34.7254 68.701 35.3208 67.9413 35.7725 66.2851C36.1695 64.8341 36.368 63.1094 36.368 61.111C36.368 59.7559 36.2653 58.6197 36.06 57.7026C35.841 56.7171 35.533 56.1696 35.136 56.0601ZM55.0087 62.733C54.995 62.9246 54.8308 63.1642 54.5159 63.4516C54.2148 63.7254 53.9958 63.8623 53.8589 63.8623C53.6673 63.8623 53.5509 63.8691 53.5099 63.8828V69.0569C53.5099 69.0158 53.5783 69.2691 53.7152 69.8166C53.8384 70.6926 53.7357 71.2059 53.4072 71.3565C53.3388 71.3839 53.2361 71.3976 53.0992 71.3976C52.6201 71.3976 52.0042 71.2265 51.2513 70.8843C50.4437 70.5284 49.951 70.1725 49.773 69.8166C49.7593 69.6934 49.7388 69.5086 49.7114 69.2622C49.684 69.1664 49.7319 69.0364 49.8551 68.8721C49.9783 68.7078 50.0399 68.6052 50.0399 68.5641V64.4166C49.7799 64.444 49.2666 64.5467 48.5 64.7246C47.7335 64.9026 47.227 65.0394 46.9806 65.1353V69.3033C46.9806 69.3991 47.0217 69.5154 47.1038 69.6523C47.1997 69.7755 47.2544 69.8713 47.2681 69.9398C47.2133 70.1588 47.1654 70.3709 47.1244 70.5763C47.0833 70.7268 47.008 70.8227 46.8985 70.8637C46.6795 70.9458 46.0635 70.8227 45.0506 70.4941C44.0514 70.1519 43.5244 69.8782 43.4697 69.6729C43.4286 69.5223 43.4149 69.358 43.4286 69.1801C43.4697 68.9063 43.4902 68.7147 43.4902 68.6052V55.4646C43.4902 55.2456 43.5518 54.8692 43.675 54.3354C43.7024 54.1985 43.9351 54.0069 44.3731 53.7605C44.4004 53.7468 44.4757 53.7399 44.5989 53.7399C45.1054 53.7399 45.6392 53.8221 46.2004 53.9863C46.9259 54.2053 47.3092 54.4928 47.3502 54.8487C47.3639 54.9719 47.3023 55.2046 47.1654 55.5468C47.0422 55.889 46.9806 56.1217 46.9806 56.2449V61.2547C47.9114 61.022 48.9312 60.7825 50.0399 60.5361C50.0399 56.7445 50.0399 54.835 50.0399 54.8076C50.0399 54.7802 50.0057 54.6776 49.9373 54.4996C49.8825 54.3217 49.8688 54.178 49.8962 54.0685C49.9646 53.8221 50.1905 53.6647 50.5738 53.5962C50.8612 53.5552 51.1487 53.5209 51.4361 53.4936C51.7372 53.4525 52.1753 53.5415 52.7502 53.7605C53.3388 53.9795 53.6673 54.2122 53.7357 54.4586C53.7631 54.5681 53.7357 54.7118 53.6536 54.8897C53.5578 55.1224 53.5099 55.3141 53.5099 55.4646V61.1315C53.5783 61.2136 53.9 61.5079 54.4749 62.0144C54.8444 62.3429 55.0224 62.5824 55.0087 62.733ZM70.4613 69.6523C70.4477 69.7755 70.4203 70.0698 70.3792 70.5352C70.3655 70.7816 70.3108 70.9664 70.215 71.0896C70.1465 71.1306 70.0302 71.1512 69.8659 71.1512C69.4142 71.1512 68.853 71.0348 68.1823 70.8021C67.4568 70.5831 66.964 70.323 66.704 70.0219C66.5945 69.8987 66.485 69.4881 66.3755 68.79C66.2249 67.8729 66.0538 67.1132 65.8622 66.5109C65.342 66.5794 64.5823 66.771 63.5831 67.0858C62.5839 67.3869 61.9337 67.6402 61.6325 67.8455C61.4272 68.4341 61.1535 69.1596 60.8113 70.0219C60.7702 70.2135 60.7223 70.3915 60.6675 70.5557C60.6265 70.7337 60.5101 70.8774 60.3185 70.9869C60.2774 71.0143 60.2158 71.028 60.1337 71.028C59.8052 71.028 59.2508 70.8569 58.4706 70.5147C57.7041 70.1725 57.3071 69.9466 57.2797 69.8371C57.225 69.6455 57.355 69.1732 57.6698 68.4204C58.1079 67.3254 58.3611 66.6546 58.4295 66.4083C58.1421 66.1208 57.9984 65.8334 57.9984 65.5459C57.9984 65.4775 58.0052 65.4022 58.0189 65.3201C58.0463 65.1558 58.4638 64.8615 59.2714 64.4372L61.92 55.3825C61.9611 55.2183 61.9679 54.9171 61.9405 54.4791C61.9131 54.1095 61.9542 53.8768 62.0637 53.781C62.1322 53.7126 62.2964 53.6784 62.5565 53.6784C63.1998 53.6784 64.1169 53.8426 65.3078 54.1711C66.4987 54.4996 67.2104 54.7939 67.4431 55.054C67.5253 56.5734 67.8332 58.8524 68.3671 61.8912C69.0515 65.6417 69.7496 68.2288 70.4613 69.6523ZM65.1025 63.4106C64.9245 62.5482 64.815 61.9802 64.774 61.7064C64.6234 60.7893 64.5207 59.838 64.466 58.8524C64.1922 59.5232 63.8705 60.4539 63.501 61.6448C63.104 62.8904 62.8918 63.6706 62.8645 63.9855C63.1245 63.876 63.8705 63.6843 65.1025 63.4106Z" fill="#5B63DC"/>
<defs>
<linearGradient id="paint0_linear_1566_28690" x1="40.1817" y1="1.95055" x2="21.0664" y2="30.8187" gradientUnits="userSpaceOnUse">
<stop stop-color="#428BDF"/>
<stop offset="1" stop-color="#4A39C5"/>
</linearGradient>
<linearGradient id="paint1_linear_1566_28690" x1="24.1871" y1="28.0883" x2="31.5992" y2="17.1652" gradientUnits="userSpaceOnUse">
<stop stop-color="#3658BA" stop-opacity="0"/>
<stop offset="1" stop-color="#462FD4"/>
</linearGradient>
<linearGradient id="paint2_linear_1566_28690" x1="35.8896" y1="28.4078" x2="52.6643" y2="21.0658" gradientUnits="userSpaceOnUse">
<stop stop-color="#7277ED" stop-opacity="0"/>
<stop offset="1" stop-color="#6A57DD"/>
</linearGradient>
</defs>
</svg>
